G04 #@! TF.FileFunction,Soldermask,Top*
%FSLAX46Y46*%
G04 Gerber Fmt 4.6, Leading zero omitted, Abs format (unit mm)*
G04 Created by KiCad (PCBNEW 4.0.2+dfsg1-stable) date Wed 05 Apr 2017 10:48:54 PM CEST*
%MOMM*%
G01*
G04 APERTURE LIST*
%ADD10C,0.100000*%
%ADD11C,0.150000*%
%ADD12R,1.700000X1.700000*%
%ADD13C,1.700000*%
%ADD14C,2.398980*%
%ADD15R,2.398980X2.398980*%
%ADD16R,2.400000X2.400000*%
%ADD17C,2.400000*%
%ADD18C,2.099260*%
%ADD19R,2.099260X2.099260*%
%ADD20C,2.200000*%
%ADD21C,1.400760*%
%ADD22C,1.924000*%
%ADD23R,1.900000X1.900000*%
%ADD24C,1.900000*%
%ADD25C,2.500000*%
%ADD26O,2.000000X2.000000*%
%ADD27C,2.300000*%
%ADD28R,1.000000X1.900000*%
%ADD29C,7.400000*%
G04 APERTURE END LIST*
D10*
D11*
X57000000Y-50000000D02*
G75*
G03X57000000Y-50000000I-2000000J0D01*
G01*
X189500000Y-50000000D02*
G75*
G03X189500000Y-50000000I-2000000J0D01*
G01*
X189500000Y-140000000D02*
G75*
G03X189500000Y-140000000I-2000000J0D01*
G01*
X57000000Y-140000000D02*
G75*
G03X57000000Y-140000000I-2000000J0D01*
G01*
X50000000Y-150000000D02*
X192500000Y-150000000D01*
X192500000Y-40000000D02*
X50000000Y-40000000D01*
X192500000Y-48000000D02*
X192500000Y-150000000D01*
X192500000Y-40000000D02*
X192500000Y-48000000D01*
D12*
X119380000Y-57150000D03*
D13*
X114380000Y-57150000D03*
D12*
X90170000Y-53340000D03*
D13*
X95170000Y-53340000D03*
D12*
X62230000Y-83820000D03*
D13*
X57230000Y-83820000D03*
D12*
X90170000Y-57150000D03*
D13*
X95170000Y-57150000D03*
D12*
X60960000Y-91440000D03*
D13*
X58960000Y-91440000D03*
D12*
X90170000Y-60960000D03*
D13*
X95170000Y-60960000D03*
D12*
X90170000Y-44450000D03*
D13*
X95170000Y-44450000D03*
D12*
X107950000Y-46990000D03*
D13*
X102950000Y-46990000D03*
D12*
X105410000Y-73660000D03*
D13*
X100410000Y-73660000D03*
D12*
X96520000Y-96520000D03*
D13*
X91520000Y-96520000D03*
D12*
X73660000Y-81280000D03*
D13*
X73660000Y-76280000D03*
D12*
X82550000Y-96520000D03*
D13*
X87550000Y-96520000D03*
D12*
X106553000Y-86360000D03*
D13*
X104553000Y-86360000D03*
D12*
X119380000Y-86360000D03*
D13*
X117380000Y-86360000D03*
D12*
X137160000Y-97790000D03*
D13*
X137160000Y-92790000D03*
D12*
X78740000Y-119380000D03*
D13*
X83740000Y-119380000D03*
D12*
X71120000Y-100330000D03*
D13*
X71120000Y-105330000D03*
D12*
X133350000Y-97790000D03*
D13*
X133350000Y-92790000D03*
D12*
X137160000Y-120650000D03*
D13*
X137160000Y-115650000D03*
D12*
X133350000Y-120650000D03*
D13*
X133350000Y-115650000D03*
D14*
X97790000Y-66042540D03*
D15*
X107950000Y-66042540D03*
D16*
X107950000Y-124460000D03*
D17*
X110490000Y-124460000D03*
D16*
X101600000Y-124460000D03*
D17*
X104140000Y-124460000D03*
D16*
X95250000Y-124460000D03*
D17*
X97790000Y-124460000D03*
D16*
X88900000Y-124460000D03*
D17*
X91440000Y-124460000D03*
D18*
X139702540Y-102870520D03*
D19*
X139702540Y-92710520D03*
D18*
X142242540Y-125730520D03*
D19*
X142242540Y-115570520D03*
D18*
X139702540Y-125730520D03*
D19*
X139702540Y-115570520D03*
D20*
X119070000Y-72390000D03*
X112070000Y-72390000D03*
D21*
X128270000Y-95250000D03*
X127000000Y-93980000D03*
X129540000Y-93980000D03*
X128270000Y-100330000D03*
X127000000Y-99060000D03*
X129540000Y-99060000D03*
X128270000Y-118110000D03*
X127000000Y-116840000D03*
X129540000Y-116840000D03*
X128270000Y-123190000D03*
X127000000Y-121920000D03*
X129540000Y-121920000D03*
D22*
X90170000Y-46990000D03*
X100330000Y-46990000D03*
X100330000Y-49530000D03*
X90170000Y-49530000D03*
X82550000Y-64770000D03*
X72390000Y-64770000D03*
X72390000Y-72390000D03*
X82550000Y-72390000D03*
X82550000Y-67310000D03*
X72390000Y-67310000D03*
X86360000Y-87630000D03*
X96520000Y-87630000D03*
X96520000Y-90170000D03*
X86360000Y-90170000D03*
X82550000Y-69850000D03*
X72390000Y-69850000D03*
X96520000Y-92710000D03*
X86360000Y-92710000D03*
X124460000Y-92710000D03*
X124460000Y-102870000D03*
D23*
X110490000Y-129540000D03*
D24*
X107950000Y-129540000D03*
X105410000Y-129540000D03*
X102870000Y-129540000D03*
X100330000Y-129540000D03*
D25*
X147320000Y-93980000D03*
X147320000Y-97760000D03*
X147320000Y-101540000D03*
X162440000Y-101540000D03*
X167480000Y-101540000D03*
X172520000Y-101540000D03*
X172520000Y-93980000D03*
X167480000Y-93980000D03*
X162440000Y-93980000D03*
D22*
X121920000Y-92710000D03*
X121920000Y-102870000D03*
X73660000Y-123190000D03*
X83820000Y-123190000D03*
X73660000Y-128270000D03*
X83820000Y-128270000D03*
X67310000Y-100330000D03*
X67310000Y-110490000D03*
X124460000Y-115570000D03*
X124460000Y-125730000D03*
D25*
X147320000Y-116840000D03*
X147320000Y-120620000D03*
X147320000Y-124400000D03*
X162440000Y-124400000D03*
X167480000Y-124400000D03*
X172520000Y-124400000D03*
X172520000Y-116840000D03*
X167480000Y-116840000D03*
X162440000Y-116840000D03*
D22*
X121920000Y-115570000D03*
X121920000Y-125730000D03*
X73660000Y-125730000D03*
X83820000Y-125730000D03*
D20*
X91059000Y-76581000D03*
X91059000Y-79121000D03*
X91059000Y-74041000D03*
X72390000Y-93980000D03*
X76890000Y-93980000D03*
X72390000Y-87480000D03*
X76890000Y-87480000D03*
D24*
X58420000Y-101600000D03*
X58420000Y-104140000D03*
X58420000Y-106680000D03*
X58420000Y-109220000D03*
X58420000Y-111760000D03*
X58420000Y-114300000D03*
X57150000Y-77470000D03*
X64770000Y-80010000D03*
X57150000Y-80010000D03*
X64770000Y-77470000D03*
X59690000Y-77470000D03*
X62230000Y-80010000D03*
X59690000Y-80010000D03*
X62230000Y-77470000D03*
D26*
X100330000Y-60960000D03*
X102870000Y-60960000D03*
X105410000Y-60960000D03*
X107950000Y-60960000D03*
X107950000Y-53340000D03*
X105410000Y-53340000D03*
X102870000Y-53340000D03*
X100330000Y-53340000D03*
X77470000Y-115570000D03*
X80010000Y-115570000D03*
X82550000Y-115570000D03*
X85090000Y-115570000D03*
X87630000Y-115570000D03*
X90170000Y-115570000D03*
X92710000Y-115570000D03*
X95250000Y-115570000D03*
X97790000Y-115570000D03*
X100330000Y-115570000D03*
X102870000Y-115570000D03*
X105410000Y-115570000D03*
X107950000Y-115570000D03*
X110490000Y-115570000D03*
X110490000Y-100330000D03*
X107950000Y-100330000D03*
X105410000Y-100330000D03*
X102870000Y-100330000D03*
X100330000Y-100330000D03*
X97790000Y-100330000D03*
X95250000Y-100330000D03*
X92710000Y-100330000D03*
X90170000Y-100330000D03*
X87630000Y-100330000D03*
X85090000Y-100330000D03*
X82550000Y-100330000D03*
X80010000Y-100330000D03*
X77470000Y-100330000D03*
D25*
X175000000Y-45500000D03*
X175000000Y-63000000D03*
X128000000Y-53000000D03*
X128000000Y-73000000D03*
X175000000Y-80500000D03*
D27*
X186690000Y-67350000D03*
X186690000Y-72350000D03*
X186690000Y-94020000D03*
X186690000Y-99020000D03*
X186690000Y-116880000D03*
X186690000Y-121880000D03*
X120500000Y-45500000D03*
X115500000Y-45500000D03*
D28*
X85090000Y-76040000D03*
X83820000Y-76040000D03*
X82550000Y-76040000D03*
X81280000Y-76040000D03*
X80010000Y-76040000D03*
X78740000Y-76040000D03*
X77470000Y-76040000D03*
X77470000Y-81440000D03*
X78740000Y-81440000D03*
X80010000Y-81440000D03*
X81280000Y-81440000D03*
X82550000Y-81440000D03*
X83820000Y-81440000D03*
X85090000Y-81440000D03*
D18*
X142242540Y-102870520D03*
D19*
X142242540Y-92710520D03*
D29*
X55000000Y-140000000D03*
X187500000Y-140000000D03*
X187500000Y-50000000D03*
X55000000Y-50000000D03*
M02*
