G04 #@! TF.FileFunction,Copper,L1,Top,Signal*
%FSLAX46Y46*%
G04 Gerber Fmt 4.6, Leading zero omitted, Abs format (unit mm)*
G04 Created by KiCad (PCBNEW 4.0.2+dfsg1-stable) date Wed 05 Apr 2017 10:48:54 PM CEST*
%MOMM*%
G01*
G04 APERTURE LIST*
%ADD10C,0.100000*%
%ADD11C,0.300000*%
%ADD12C,0.150000*%
%ADD13R,1.300000X1.300000*%
%ADD14C,1.300000*%
%ADD15C,1.998980*%
%ADD16R,1.998980X1.998980*%
%ADD17R,2.000000X2.000000*%
%ADD18C,2.000000*%
%ADD19C,1.699260*%
%ADD20R,1.699260X1.699260*%
%ADD21C,1.800000*%
%ADD22C,1.000760*%
%ADD23C,1.524000*%
%ADD24R,1.500000X1.500000*%
%ADD25C,1.500000*%
%ADD26C,2.100000*%
%ADD27O,1.600000X1.600000*%
%ADD28C,1.900000*%
%ADD29R,0.600000X1.500000*%
%ADD30C,7.000000*%
%ADD31C,0.914400*%
%ADD32C,0.254000*%
%ADD33C,0.250000*%
%ADD34C,0.508000*%
%ADD35C,0.990600*%
G04 APERTURE END LIST*
D10*
D11*
X70842857Y-54778571D02*
X71700000Y-54778571D01*
X71271429Y-56278571D02*
X71271429Y-54778571D01*
X73057143Y-56135714D02*
X72985714Y-56207143D01*
X72771428Y-56278571D01*
X72628571Y-56278571D01*
X72414286Y-56207143D01*
X72271428Y-56064286D01*
X72200000Y-55921429D01*
X72128571Y-55635714D01*
X72128571Y-55421429D01*
X72200000Y-55135714D01*
X72271428Y-54992857D01*
X72414286Y-54850000D01*
X72628571Y-54778571D01*
X72771428Y-54778571D01*
X72985714Y-54850000D01*
X73057143Y-54921429D01*
X73628571Y-54921429D02*
X73700000Y-54850000D01*
X73842857Y-54778571D01*
X74200000Y-54778571D01*
X74342857Y-54850000D01*
X74414286Y-54921429D01*
X74485714Y-55064286D01*
X74485714Y-55207143D01*
X74414286Y-55421429D01*
X73557143Y-56278571D01*
X74485714Y-56278571D01*
X76057142Y-54778571D02*
X76557142Y-56278571D01*
X77057142Y-54778571D01*
X78342856Y-56278571D02*
X77485713Y-56278571D01*
X77914285Y-56278571D02*
X77914285Y-54778571D01*
X77771428Y-54992857D01*
X77628570Y-55135714D01*
X77485713Y-55207143D01*
X78985713Y-56135714D02*
X79057141Y-56207143D01*
X78985713Y-56278571D01*
X78914284Y-56207143D01*
X78985713Y-56135714D01*
X78985713Y-56278571D01*
X79985713Y-54778571D02*
X80128570Y-54778571D01*
X80271427Y-54850000D01*
X80342856Y-54921429D01*
X80414285Y-55064286D01*
X80485713Y-55350000D01*
X80485713Y-55707143D01*
X80414285Y-55992857D01*
X80342856Y-56135714D01*
X80271427Y-56207143D01*
X80128570Y-56278571D01*
X79985713Y-56278571D01*
X79842856Y-56207143D01*
X79771427Y-56135714D01*
X79699999Y-55992857D01*
X79628570Y-55707143D01*
X79628570Y-55350000D01*
X79699999Y-55064286D01*
X79771427Y-54921429D01*
X79842856Y-54850000D01*
X79985713Y-54778571D01*
X70985714Y-57321429D02*
X71057143Y-57250000D01*
X71200000Y-57178571D01*
X71557143Y-57178571D01*
X71700000Y-57250000D01*
X71771429Y-57321429D01*
X71842857Y-57464286D01*
X71842857Y-57607143D01*
X71771429Y-57821429D01*
X70914286Y-58678571D01*
X71842857Y-58678571D01*
X72771428Y-57178571D02*
X72914285Y-57178571D01*
X73057142Y-57250000D01*
X73128571Y-57321429D01*
X73200000Y-57464286D01*
X73271428Y-57750000D01*
X73271428Y-58107143D01*
X73200000Y-58392857D01*
X73128571Y-58535714D01*
X73057142Y-58607143D01*
X72914285Y-58678571D01*
X72771428Y-58678571D01*
X72628571Y-58607143D01*
X72557142Y-58535714D01*
X72485714Y-58392857D01*
X72414285Y-58107143D01*
X72414285Y-57750000D01*
X72485714Y-57464286D01*
X72557142Y-57321429D01*
X72628571Y-57250000D01*
X72771428Y-57178571D01*
X74699999Y-58678571D02*
X73842856Y-58678571D01*
X74271428Y-58678571D02*
X74271428Y-57178571D01*
X74128571Y-57392857D01*
X73985713Y-57535714D01*
X73842856Y-57607143D01*
X75199999Y-57178571D02*
X76199999Y-57178571D01*
X75557142Y-58678571D01*
X76771427Y-58107143D02*
X77914284Y-58107143D01*
X78914284Y-57178571D02*
X79057141Y-57178571D01*
X79199998Y-57250000D01*
X79271427Y-57321429D01*
X79342856Y-57464286D01*
X79414284Y-57750000D01*
X79414284Y-58107143D01*
X79342856Y-58392857D01*
X79271427Y-58535714D01*
X79199998Y-58607143D01*
X79057141Y-58678571D01*
X78914284Y-58678571D01*
X78771427Y-58607143D01*
X78699998Y-58535714D01*
X78628570Y-58392857D01*
X78557141Y-58107143D01*
X78557141Y-57750000D01*
X78628570Y-57464286D01*
X78699998Y-57321429D01*
X78771427Y-57250000D01*
X78914284Y-57178571D01*
X80699998Y-57678571D02*
X80699998Y-58678571D01*
X80342855Y-57107143D02*
X79985712Y-58178571D01*
X80914284Y-58178571D01*
X81485712Y-58107143D02*
X82628569Y-58107143D01*
X83628569Y-57178571D02*
X83771426Y-57178571D01*
X83914283Y-57250000D01*
X83985712Y-57321429D01*
X84057141Y-57464286D01*
X84128569Y-57750000D01*
X84128569Y-58107143D01*
X84057141Y-58392857D01*
X83985712Y-58535714D01*
X83914283Y-58607143D01*
X83771426Y-58678571D01*
X83628569Y-58678571D01*
X83485712Y-58607143D01*
X83414283Y-58535714D01*
X83342855Y-58392857D01*
X83271426Y-58107143D01*
X83271426Y-57750000D01*
X83342855Y-57464286D01*
X83414283Y-57321429D01*
X83485712Y-57250000D01*
X83628569Y-57178571D01*
X85485712Y-57178571D02*
X84771426Y-57178571D01*
X84699997Y-57892857D01*
X84771426Y-57821429D01*
X84914283Y-57750000D01*
X85271426Y-57750000D01*
X85414283Y-57821429D01*
X85485712Y-57892857D01*
X85557140Y-58035714D01*
X85557140Y-58392857D01*
X85485712Y-58535714D01*
X85414283Y-58607143D01*
X85271426Y-58678571D01*
X84914283Y-58678571D01*
X84771426Y-58607143D01*
X84699997Y-58535714D01*
X71985714Y-60364286D02*
X71914286Y-60292857D01*
X71771429Y-60221429D01*
X71628571Y-60221429D01*
X71485714Y-60292857D01*
X71414286Y-60364286D01*
X71342857Y-60507143D01*
X71342857Y-60650000D01*
X71414286Y-60792857D01*
X71485714Y-60864286D01*
X71628571Y-60935714D01*
X71771429Y-60935714D01*
X71914286Y-60864286D01*
X71985714Y-60792857D01*
X71985714Y-60221429D02*
X71985714Y-60792857D01*
X72057143Y-60864286D01*
X72128571Y-60864286D01*
X72271429Y-60792857D01*
X72342857Y-60650000D01*
X72342857Y-60292857D01*
X72200000Y-60078571D01*
X71985714Y-59935714D01*
X71700000Y-59864286D01*
X71414286Y-59935714D01*
X71200000Y-60078571D01*
X71057143Y-60292857D01*
X70985714Y-60578571D01*
X71057143Y-60864286D01*
X71200000Y-61078571D01*
X71414286Y-61221429D01*
X71700000Y-61292857D01*
X71985714Y-61221429D01*
X72200000Y-61078571D01*
X72985714Y-61078571D02*
X72985714Y-60078571D01*
X72985714Y-60221429D02*
X73057142Y-60150000D01*
X73200000Y-60078571D01*
X73414285Y-60078571D01*
X73557142Y-60150000D01*
X73628571Y-60292857D01*
X73628571Y-61078571D01*
X73628571Y-60292857D02*
X73700000Y-60150000D01*
X73842857Y-60078571D01*
X74057142Y-60078571D01*
X74200000Y-60150000D01*
X74271428Y-60292857D01*
X74271428Y-61078571D01*
X74985714Y-61078571D02*
X74985714Y-60078571D01*
X74985714Y-60221429D02*
X75057142Y-60150000D01*
X75200000Y-60078571D01*
X75414285Y-60078571D01*
X75557142Y-60150000D01*
X75628571Y-60292857D01*
X75628571Y-61078571D01*
X75628571Y-60292857D02*
X75700000Y-60150000D01*
X75842857Y-60078571D01*
X76057142Y-60078571D01*
X76200000Y-60150000D01*
X76271428Y-60292857D01*
X76271428Y-61078571D01*
X76985714Y-61078571D02*
X76985714Y-59578571D01*
X76985714Y-60150000D02*
X77128571Y-60078571D01*
X77414285Y-60078571D01*
X77557142Y-60150000D01*
X77628571Y-60221429D01*
X77700000Y-60364286D01*
X77700000Y-60792857D01*
X77628571Y-60935714D01*
X77557142Y-61007143D01*
X77414285Y-61078571D01*
X77128571Y-61078571D01*
X76985714Y-61007143D01*
X78557143Y-61078571D02*
X78414285Y-61007143D01*
X78342857Y-60864286D01*
X78342857Y-59578571D01*
X79128571Y-60078571D02*
X79128571Y-61078571D01*
X79128571Y-60221429D02*
X79199999Y-60150000D01*
X79342857Y-60078571D01*
X79557142Y-60078571D01*
X79699999Y-60150000D01*
X79771428Y-60292857D01*
X79771428Y-61078571D01*
X80271428Y-60078571D02*
X80842857Y-60078571D01*
X80485714Y-61078571D02*
X80485714Y-59792857D01*
X80557142Y-59650000D01*
X80700000Y-59578571D01*
X80842857Y-59578571D01*
X81342857Y-61078571D02*
X81342857Y-60078571D01*
X81342857Y-60364286D02*
X81414285Y-60221429D01*
X81485714Y-60150000D01*
X81628571Y-60078571D01*
X81771428Y-60078571D01*
X82271428Y-60078571D02*
X82271428Y-61078571D01*
X82271428Y-60221429D02*
X82342856Y-60150000D01*
X82485714Y-60078571D01*
X82699999Y-60078571D01*
X82842856Y-60150000D01*
X82914285Y-60292857D01*
X82914285Y-61078571D01*
X72728572Y-52228571D02*
X71871429Y-52228571D01*
X72300001Y-52228571D02*
X72300001Y-50728571D01*
X72157144Y-50942857D01*
X72014286Y-51085714D01*
X71871429Y-51157143D01*
D12*
X57000000Y-50000000D02*
G75*
G03X57000000Y-50000000I-2000000J0D01*
G01*
X189500000Y-50000000D02*
G75*
G03X189500000Y-50000000I-2000000J0D01*
G01*
X189500000Y-140000000D02*
G75*
G03X189500000Y-140000000I-2000000J0D01*
G01*
X57000000Y-140000000D02*
G75*
G03X57000000Y-140000000I-2000000J0D01*
G01*
X50000000Y-150000000D02*
X192500000Y-150000000D01*
X192500000Y-40000000D02*
X50000000Y-40000000D01*
X192500000Y-48000000D02*
X192500000Y-150000000D01*
X192500000Y-40000000D02*
X192500000Y-48000000D01*
D13*
X119380000Y-57150000D03*
D14*
X114380000Y-57150000D03*
D13*
X90170000Y-53340000D03*
D14*
X95170000Y-53340000D03*
D13*
X62230000Y-83820000D03*
D14*
X57230000Y-83820000D03*
D13*
X90170000Y-57150000D03*
D14*
X95170000Y-57150000D03*
D13*
X60960000Y-91440000D03*
D14*
X58960000Y-91440000D03*
D13*
X90170000Y-60960000D03*
D14*
X95170000Y-60960000D03*
D13*
X90170000Y-44450000D03*
D14*
X95170000Y-44450000D03*
D13*
X107950000Y-46990000D03*
D14*
X102950000Y-46990000D03*
D13*
X105410000Y-73660000D03*
D14*
X100410000Y-73660000D03*
D13*
X96520000Y-96520000D03*
D14*
X91520000Y-96520000D03*
D13*
X73660000Y-81280000D03*
D14*
X73660000Y-76280000D03*
D13*
X82550000Y-96520000D03*
D14*
X87550000Y-96520000D03*
D13*
X106553000Y-86360000D03*
D14*
X104553000Y-86360000D03*
D13*
X119380000Y-86360000D03*
D14*
X117380000Y-86360000D03*
D13*
X137160000Y-97790000D03*
D14*
X137160000Y-92790000D03*
D13*
X78740000Y-119380000D03*
D14*
X83740000Y-119380000D03*
D13*
X71120000Y-100330000D03*
D14*
X71120000Y-105330000D03*
D13*
X133350000Y-97790000D03*
D14*
X133350000Y-92790000D03*
D13*
X137160000Y-120650000D03*
D14*
X137160000Y-115650000D03*
D13*
X133350000Y-120650000D03*
D14*
X133350000Y-115650000D03*
D15*
X97790000Y-66042540D03*
D16*
X107950000Y-66042540D03*
D17*
X107950000Y-124460000D03*
D18*
X110490000Y-124460000D03*
D17*
X101600000Y-124460000D03*
D18*
X104140000Y-124460000D03*
D17*
X95250000Y-124460000D03*
D18*
X97790000Y-124460000D03*
D17*
X88900000Y-124460000D03*
D18*
X91440000Y-124460000D03*
D19*
X139702540Y-102870520D03*
D20*
X139702540Y-92710520D03*
D19*
X142242540Y-125730520D03*
D20*
X142242540Y-115570520D03*
D19*
X139702540Y-125730520D03*
D20*
X139702540Y-115570520D03*
D21*
X119070000Y-72390000D03*
X112070000Y-72390000D03*
D22*
X128270000Y-95250000D03*
X127000000Y-93980000D03*
X129540000Y-93980000D03*
X128270000Y-100330000D03*
X127000000Y-99060000D03*
X129540000Y-99060000D03*
X128270000Y-118110000D03*
X127000000Y-116840000D03*
X129540000Y-116840000D03*
X128270000Y-123190000D03*
X127000000Y-121920000D03*
X129540000Y-121920000D03*
D23*
X90170000Y-46990000D03*
X100330000Y-46990000D03*
X100330000Y-49530000D03*
X90170000Y-49530000D03*
X82550000Y-64770000D03*
X72390000Y-64770000D03*
X72390000Y-72390000D03*
X82550000Y-72390000D03*
X82550000Y-67310000D03*
X72390000Y-67310000D03*
X86360000Y-87630000D03*
X96520000Y-87630000D03*
X96520000Y-90170000D03*
X86360000Y-90170000D03*
X82550000Y-69850000D03*
X72390000Y-69850000D03*
X96520000Y-92710000D03*
X86360000Y-92710000D03*
X124460000Y-92710000D03*
X124460000Y-102870000D03*
D24*
X110490000Y-129540000D03*
D25*
X107950000Y-129540000D03*
X105410000Y-129540000D03*
X102870000Y-129540000D03*
X100330000Y-129540000D03*
D26*
X147320000Y-93980000D03*
X147320000Y-97760000D03*
X147320000Y-101540000D03*
X162440000Y-101540000D03*
X167480000Y-101540000D03*
X172520000Y-101540000D03*
X172520000Y-93980000D03*
X167480000Y-93980000D03*
X162440000Y-93980000D03*
D23*
X121920000Y-92710000D03*
X121920000Y-102870000D03*
X73660000Y-123190000D03*
X83820000Y-123190000D03*
X73660000Y-128270000D03*
X83820000Y-128270000D03*
X67310000Y-100330000D03*
X67310000Y-110490000D03*
X124460000Y-115570000D03*
X124460000Y-125730000D03*
D26*
X147320000Y-116840000D03*
X147320000Y-120620000D03*
X147320000Y-124400000D03*
X162440000Y-124400000D03*
X167480000Y-124400000D03*
X172520000Y-124400000D03*
X172520000Y-116840000D03*
X167480000Y-116840000D03*
X162440000Y-116840000D03*
D23*
X121920000Y-115570000D03*
X121920000Y-125730000D03*
X73660000Y-125730000D03*
X83820000Y-125730000D03*
D21*
X91059000Y-76581000D03*
X91059000Y-79121000D03*
X91059000Y-74041000D03*
X72390000Y-93980000D03*
X76890000Y-93980000D03*
X72390000Y-87480000D03*
X76890000Y-87480000D03*
D25*
X58420000Y-101600000D03*
X58420000Y-104140000D03*
X58420000Y-106680000D03*
X58420000Y-109220000D03*
X58420000Y-111760000D03*
X58420000Y-114300000D03*
X57150000Y-77470000D03*
X64770000Y-80010000D03*
X57150000Y-80010000D03*
X64770000Y-77470000D03*
X59690000Y-77470000D03*
X62230000Y-80010000D03*
X59690000Y-80010000D03*
X62230000Y-77470000D03*
D27*
X100330000Y-60960000D03*
X102870000Y-60960000D03*
X105410000Y-60960000D03*
X107950000Y-60960000D03*
X107950000Y-53340000D03*
X105410000Y-53340000D03*
X102870000Y-53340000D03*
X100330000Y-53340000D03*
X77470000Y-115570000D03*
X80010000Y-115570000D03*
X82550000Y-115570000D03*
X85090000Y-115570000D03*
X87630000Y-115570000D03*
X90170000Y-115570000D03*
X92710000Y-115570000D03*
X95250000Y-115570000D03*
X97790000Y-115570000D03*
X100330000Y-115570000D03*
X102870000Y-115570000D03*
X105410000Y-115570000D03*
X107950000Y-115570000D03*
X110490000Y-115570000D03*
X110490000Y-100330000D03*
X107950000Y-100330000D03*
X105410000Y-100330000D03*
X102870000Y-100330000D03*
X100330000Y-100330000D03*
X97790000Y-100330000D03*
X95250000Y-100330000D03*
X92710000Y-100330000D03*
X90170000Y-100330000D03*
X87630000Y-100330000D03*
X85090000Y-100330000D03*
X82550000Y-100330000D03*
X80010000Y-100330000D03*
X77470000Y-100330000D03*
D26*
X175000000Y-45500000D03*
X175000000Y-63000000D03*
X128000000Y-53000000D03*
X128000000Y-73000000D03*
X175000000Y-80500000D03*
D28*
X186690000Y-67350000D03*
X186690000Y-72350000D03*
X186690000Y-94020000D03*
X186690000Y-99020000D03*
X186690000Y-116880000D03*
X186690000Y-121880000D03*
X120500000Y-45500000D03*
X115500000Y-45500000D03*
D29*
X85090000Y-76040000D03*
X83820000Y-76040000D03*
X82550000Y-76040000D03*
X81280000Y-76040000D03*
X80010000Y-76040000D03*
X78740000Y-76040000D03*
X77470000Y-76040000D03*
X77470000Y-81440000D03*
X78740000Y-81440000D03*
X80010000Y-81440000D03*
X81280000Y-81440000D03*
X82550000Y-81440000D03*
X83820000Y-81440000D03*
X85090000Y-81440000D03*
D19*
X142242540Y-102870520D03*
D20*
X142242540Y-92710520D03*
D30*
X55000000Y-140000000D03*
X187500000Y-140000000D03*
X187500000Y-50000000D03*
X55000000Y-50000000D03*
D31*
X80010000Y-79502000D03*
X81280000Y-74041000D03*
X84074000Y-73660000D03*
X78994000Y-83312000D03*
X110490000Y-96774000D03*
X79756000Y-84582000D03*
X99060000Y-110871000D03*
X67437000Y-91186000D03*
X81661000Y-79502000D03*
X89662000Y-86995000D03*
X87503000Y-77851000D03*
X74803000Y-83312000D03*
X91440000Y-113284000D03*
X104521000Y-90424000D03*
X111633000Y-69342000D03*
X70104000Y-85471000D03*
D32*
X88646000Y-48514000D02*
X88646000Y-51816000D01*
X88646000Y-51816000D02*
X88646000Y-51689000D01*
X88646000Y-51689000D02*
X88646000Y-51816000D01*
X142242540Y-92710520D02*
X142270520Y-92710520D01*
X142270520Y-92710520D02*
X147320000Y-97760000D01*
X90170000Y-53340000D02*
X90297000Y-53340000D01*
X90297000Y-53340000D02*
X92075000Y-51562000D01*
X106172000Y-51562000D02*
X107950000Y-53340000D01*
X92075000Y-51562000D02*
X106172000Y-51562000D01*
X142242540Y-115570520D02*
X142242540Y-106423460D01*
X149098000Y-99538000D02*
X147320000Y-97760000D01*
X149098000Y-102235000D02*
X149098000Y-99538000D01*
X147701000Y-103632000D02*
X149098000Y-102235000D01*
X145034000Y-103632000D02*
X147701000Y-103632000D01*
X142242540Y-106423460D02*
X145034000Y-103632000D01*
D33*
X139702540Y-92710520D02*
X142242540Y-92710520D01*
X142242540Y-92710520D02*
X142240000Y-92713060D01*
X147320000Y-120620000D02*
X147292020Y-120620000D01*
X147292020Y-120620000D02*
X142242540Y-115570520D01*
X142242540Y-115570520D02*
X139702540Y-115570520D01*
X90170000Y-53340000D02*
X88646000Y-51816000D01*
X88646000Y-48514000D02*
X90170000Y-46990000D01*
D34*
X120500000Y-45500000D02*
X128000000Y-53000000D01*
X128000000Y-53000000D02*
X123530000Y-53000000D01*
X123530000Y-53000000D02*
X119380000Y-57150000D01*
X119380000Y-57150000D02*
X119126000Y-57150000D01*
X119126000Y-57150000D02*
X115316000Y-53340000D01*
X115316000Y-53340000D02*
X107950000Y-53340000D01*
D32*
X90170000Y-44450000D02*
X91186000Y-45466000D01*
X91186000Y-45466000D02*
X91821000Y-46101000D01*
X90170000Y-49530000D02*
X90170000Y-49403000D01*
X90170000Y-49403000D02*
X91821000Y-47752000D01*
D33*
X91821000Y-46101000D02*
X91821000Y-47752000D01*
D32*
X86360000Y-92710000D02*
X88011000Y-94361000D01*
X88011000Y-94361000D02*
X89535000Y-95885000D01*
X86360000Y-92710000D02*
X82550000Y-96520000D01*
X89535000Y-99695000D02*
X90170000Y-100330000D01*
X89535000Y-95885000D02*
X89535000Y-99695000D01*
X137160000Y-97790000D02*
X137033000Y-97790000D01*
X137033000Y-97790000D02*
X134112000Y-94869000D01*
X132207000Y-94869000D02*
X130429000Y-94869000D01*
X130429000Y-94869000D02*
X129540000Y-93980000D01*
D33*
X132207000Y-94869000D02*
X134112000Y-94869000D01*
D32*
X73660000Y-128270000D02*
X73787000Y-128270000D01*
X73787000Y-128270000D02*
X78740000Y-123317000D01*
D33*
X73660000Y-123190000D02*
X74549000Y-123190000D01*
X74930000Y-123190000D02*
X78740000Y-119380000D01*
X74803000Y-123190000D02*
X74930000Y-123190000D01*
X74549000Y-123190000D02*
X74803000Y-123190000D01*
X78740000Y-119380000D02*
X78740000Y-123317000D01*
X90170000Y-115570000D02*
X90170000Y-115951000D01*
X90170000Y-115951000D02*
X88265000Y-117856000D01*
X88265000Y-117856000D02*
X80264000Y-117856000D01*
X80264000Y-117856000D02*
X78740000Y-119380000D01*
D32*
X71120000Y-100330000D02*
X77470000Y-100330000D01*
X77470000Y-100330000D02*
X77470000Y-106807000D01*
X77470000Y-106807000D02*
X72009000Y-112268000D01*
X72009000Y-112268000D02*
X72009000Y-124460000D01*
X72009000Y-124460000D02*
X73279000Y-125730000D01*
X73279000Y-125730000D02*
X73660000Y-125730000D01*
X67310000Y-100330000D02*
X77470000Y-100330000D01*
X73660000Y-125730000D02*
X73279000Y-125730000D01*
X73279000Y-125730000D02*
X72009000Y-124460000D01*
X72009000Y-124460000D02*
X72009000Y-112268000D01*
X72009000Y-112268000D02*
X77470000Y-106807000D01*
X77470000Y-106807000D02*
X77470000Y-100330000D01*
X139702540Y-102870520D02*
X139702540Y-102867460D01*
X139702540Y-102867460D02*
X141859000Y-100711000D01*
X133350000Y-97790000D02*
X138430520Y-102870520D01*
X138430000Y-102870000D02*
X138430000Y-102870520D01*
X138430520Y-102870520D02*
X138430000Y-102870000D01*
D33*
X129540000Y-99060000D02*
X130683000Y-97917000D01*
X130683000Y-97917000D02*
X133223000Y-97917000D01*
X133223000Y-97917000D02*
X133350000Y-97790000D01*
X139702540Y-102870520D02*
X138430000Y-102870520D01*
X146491000Y-100711000D02*
X147320000Y-101540000D01*
X141859000Y-100711000D02*
X146491000Y-100711000D01*
X137160000Y-120650000D02*
X137033000Y-120650000D01*
X137033000Y-120650000D02*
X134239000Y-117856000D01*
X129540000Y-116840000D02*
X130556000Y-117856000D01*
X130556000Y-117856000D02*
X134239000Y-117856000D01*
D32*
X139702540Y-125730520D02*
X139700520Y-125730520D01*
X139700520Y-125730520D02*
X137033000Y-123063000D01*
X135763000Y-123063000D02*
X133350000Y-120650000D01*
X137033000Y-123063000D02*
X135763000Y-123063000D01*
X147320000Y-124400000D02*
X144085000Y-124400000D01*
X141354060Y-124079000D02*
X139702540Y-125730520D01*
X143764000Y-124079000D02*
X141354060Y-124079000D01*
X144085000Y-124400000D02*
X143764000Y-124079000D01*
D33*
X129540000Y-121920000D02*
X132080000Y-121920000D01*
X132080000Y-121920000D02*
X133350000Y-120650000D01*
X147320000Y-124400000D02*
X147133000Y-124400000D01*
X107950000Y-124460000D02*
X107950000Y-129540000D01*
X107950000Y-115570000D02*
X107950000Y-115697000D01*
X107950000Y-115697000D02*
X110490000Y-118237000D01*
X110490000Y-118237000D02*
X110490000Y-120396000D01*
X110490000Y-120396000D02*
X110490000Y-124460000D01*
X101600000Y-124460000D02*
X101600000Y-125730000D01*
X101600000Y-125730000D02*
X105410000Y-129540000D01*
X105410000Y-115570000D02*
X105410000Y-123190000D01*
X105410000Y-123190000D02*
X104140000Y-124460000D01*
D32*
X95250000Y-124460000D02*
X97282000Y-126492000D01*
D33*
X102870000Y-128651000D02*
X102870000Y-129540000D01*
X100711000Y-126492000D02*
X102870000Y-128651000D01*
X97282000Y-126492000D02*
X100711000Y-126492000D01*
X102870000Y-115570000D02*
X102870000Y-116840000D01*
X97790000Y-121920000D02*
X97790000Y-122936000D01*
X102870000Y-116840000D02*
X97790000Y-121920000D01*
X97790000Y-122936000D02*
X97790000Y-124460000D01*
D32*
X88900000Y-124460000D02*
X90805000Y-126365000D01*
X90805000Y-126365000D02*
X91567000Y-127127000D01*
D33*
X97917000Y-127127000D02*
X100330000Y-129540000D01*
X91567000Y-127127000D02*
X97917000Y-127127000D01*
D32*
X100330000Y-115570000D02*
X95250000Y-120650000D01*
D33*
X95250000Y-120650000D02*
X91440000Y-124460000D01*
X121920000Y-119761000D02*
X121920000Y-120142000D01*
X121920000Y-120142000D02*
X124968000Y-123190000D01*
X128270000Y-123190000D02*
X124968000Y-123190000D01*
X121920000Y-115570000D02*
X121920000Y-119761000D01*
D32*
X80010000Y-79502000D02*
X80010000Y-81440000D01*
X81280000Y-76040000D02*
X81280000Y-74041000D01*
X80010000Y-76040000D02*
X80010000Y-73787000D01*
X81407000Y-72390000D02*
X82550000Y-72390000D01*
X80010000Y-73787000D02*
X81407000Y-72390000D01*
X83820000Y-76040000D02*
X83820000Y-73914000D01*
X83820000Y-73914000D02*
X84074000Y-73660000D01*
X77470000Y-81440000D02*
X77470000Y-82804000D01*
X77470000Y-82804000D02*
X77978000Y-83312000D01*
X77978000Y-83312000D02*
X78994000Y-83312000D01*
X110490000Y-100330000D02*
X110490000Y-96774000D01*
X81280000Y-81440000D02*
X81280000Y-83058000D01*
X81280000Y-83058000D02*
X79756000Y-84582000D01*
X83820000Y-80137000D02*
X81534000Y-77851000D01*
X79502000Y-77851000D02*
X78740000Y-77089000D01*
X81534000Y-77851000D02*
X79502000Y-77851000D01*
X82550000Y-69850000D02*
X82804000Y-69850000D01*
X82804000Y-69850000D02*
X84074000Y-71120000D01*
X82550000Y-69850000D02*
X82042000Y-69850000D01*
X82042000Y-69850000D02*
X80772000Y-71120000D01*
X78740000Y-76040000D02*
X78740000Y-73152000D01*
X85090000Y-72136000D02*
X85090000Y-76040000D01*
X84074000Y-71120000D02*
X85090000Y-72136000D01*
X78740000Y-73152000D02*
X80772000Y-71120000D01*
X78740000Y-76040000D02*
X78740000Y-77089000D01*
X83820000Y-80137000D02*
X83820000Y-81440000D01*
X150241000Y-125095000D02*
X150241000Y-125222000D01*
X150241000Y-125222000D02*
X144018000Y-131445000D01*
X83820000Y-128270000D02*
X95758000Y-128270000D01*
X95758000Y-128270000D02*
X98933000Y-131445000D01*
X98933000Y-131445000D02*
X144018000Y-131445000D01*
X165642000Y-103378000D02*
X167480000Y-101540000D01*
X154559000Y-103378000D02*
X165642000Y-103378000D01*
X150241000Y-107696000D02*
X154559000Y-103378000D01*
X150241000Y-125095000D02*
X150241000Y-107696000D01*
D33*
X167480000Y-101540000D02*
X167480000Y-101887000D01*
D35*
X167480000Y-93980000D02*
X167640000Y-93980000D01*
X167640000Y-93980000D02*
X170688000Y-90932000D01*
X170782000Y-113538000D02*
X167480000Y-116840000D01*
X178816000Y-113538000D02*
X170782000Y-113538000D01*
X182118000Y-110236000D02*
X178816000Y-113538000D01*
X182118000Y-94742000D02*
X182118000Y-110236000D01*
X178308000Y-90932000D02*
X182118000Y-94742000D01*
X170688000Y-90932000D02*
X178308000Y-90932000D01*
X167480000Y-93980000D02*
X167480000Y-79662000D01*
X174792000Y-72350000D02*
X186690000Y-72350000D01*
X167480000Y-79662000D02*
X174792000Y-72350000D01*
D32*
X82296000Y-127127000D02*
X82296000Y-129032000D01*
X161290000Y-132080000D02*
X161925000Y-131445000D01*
X98679000Y-132080000D02*
X161290000Y-132080000D01*
X96393000Y-129794000D02*
X98679000Y-132080000D01*
X83058000Y-129794000D02*
X96393000Y-129794000D01*
X82296000Y-129032000D02*
X83058000Y-129794000D01*
D33*
X83820000Y-125730000D02*
X83693000Y-125730000D01*
X83693000Y-125730000D02*
X82296000Y-127127000D01*
X161925000Y-131445000D02*
X162687000Y-130683000D01*
X162687000Y-130683000D02*
X167513000Y-125857000D01*
X167513000Y-125857000D02*
X167513000Y-124433000D01*
X167513000Y-124433000D02*
X167480000Y-124400000D01*
D32*
X107950000Y-100330000D02*
X107950000Y-101981000D01*
X107950000Y-101981000D02*
X99060000Y-110871000D01*
X82550000Y-81440000D02*
X82550000Y-80391000D01*
X62230000Y-102870000D02*
X58420000Y-106680000D01*
X62230000Y-96393000D02*
X62230000Y-102870000D01*
X67437000Y-91186000D02*
X62230000Y-96393000D01*
X82550000Y-80391000D02*
X81661000Y-79502000D01*
X78740000Y-80137000D02*
X77343000Y-78740000D01*
X77343000Y-78740000D02*
X77216000Y-78740000D01*
X66167000Y-78740000D02*
X77216000Y-78740000D01*
X66167000Y-78740000D02*
X58420000Y-78740000D01*
X58420000Y-78740000D02*
X57150000Y-80010000D01*
X78740000Y-81440000D02*
X78740000Y-80137000D01*
X89027000Y-86360000D02*
X88646000Y-85979000D01*
X85598000Y-85979000D02*
X85217000Y-86360000D01*
X88646000Y-85979000D02*
X85598000Y-85979000D01*
X89027000Y-86360000D02*
X89662000Y-86995000D01*
X81661000Y-98552000D02*
X80264000Y-97155000D01*
X80264000Y-97155000D02*
X80264000Y-96901000D01*
X82804000Y-91948000D02*
X84074000Y-90678000D01*
X84074000Y-90678000D02*
X84074000Y-87503000D01*
X84074000Y-87503000D02*
X85217000Y-86360000D01*
X82550000Y-77343000D02*
X83439000Y-78232000D01*
X82550000Y-77343000D02*
X82550000Y-76040000D01*
X86106000Y-98806000D02*
X85852000Y-98552000D01*
X85852000Y-98552000D02*
X81661000Y-98552000D01*
X80264000Y-96901000D02*
X80264000Y-94488000D01*
X80264000Y-94488000D02*
X82804000Y-91948000D01*
X82804000Y-91948000D02*
X82804000Y-91948000D01*
X87503000Y-77851000D02*
X87122000Y-78232000D01*
X87630000Y-100330000D02*
X86106000Y-98806000D01*
X83439000Y-78232000D02*
X87122000Y-78232000D01*
D33*
X111188500Y-113855500D02*
X96964500Y-113855500D01*
X96964500Y-113855500D02*
X96647000Y-114173000D01*
X111188500Y-113855500D02*
X112395000Y-115062000D01*
X127000000Y-116840000D02*
X127000000Y-121920000D01*
X133350000Y-115650000D02*
X131144000Y-115650000D01*
X128524000Y-115316000D02*
X127000000Y-116840000D01*
X130810000Y-115316000D02*
X128524000Y-115316000D01*
X131144000Y-115650000D02*
X130810000Y-115316000D01*
D34*
X74803000Y-83312000D02*
X76581000Y-83312000D01*
X76581000Y-83312000D02*
X77851000Y-84582000D01*
X74803000Y-83312000D02*
X68453000Y-83312000D01*
X68453000Y-83312000D02*
X67564000Y-84201000D01*
D32*
X95250000Y-115570000D02*
X91440000Y-119380000D01*
X95250000Y-115570000D02*
X96647000Y-114173000D01*
X77470000Y-76040000D02*
X77470000Y-74803000D01*
X75645000Y-74295000D02*
X73660000Y-76280000D01*
X76962000Y-74295000D02*
X75645000Y-74295000D01*
X77470000Y-74803000D02*
X76962000Y-74295000D01*
X133350000Y-92790000D02*
X127555000Y-92790000D01*
X127555000Y-92790000D02*
X127000000Y-93345000D01*
D34*
X77851000Y-84582000D02*
X78740000Y-85471000D01*
X84201000Y-83947000D02*
X102140000Y-83947000D01*
X102140000Y-83947000D02*
X104553000Y-86360000D01*
X78740000Y-85471000D02*
X79248000Y-85979000D01*
X79248000Y-85979000D02*
X82169000Y-85979000D01*
X82169000Y-85979000D02*
X84201000Y-83947000D01*
X92710000Y-100330000D02*
X92710000Y-102616000D01*
X92710000Y-102616000D02*
X91440000Y-103886000D01*
X91440000Y-103886000D02*
X91440000Y-113284000D01*
X91520000Y-96520000D02*
X91520000Y-99140000D01*
X91520000Y-99140000D02*
X92710000Y-100330000D01*
X91520000Y-96520000D02*
X91567000Y-96520000D01*
X91567000Y-96520000D02*
X93091000Y-94996000D01*
X104521000Y-91948000D02*
X104521000Y-90424000D01*
X101473000Y-94996000D02*
X104521000Y-91948000D01*
X93091000Y-94996000D02*
X101473000Y-94996000D01*
X57150000Y-77470000D02*
X55880000Y-77470000D01*
X55245000Y-81835000D02*
X57230000Y-83820000D01*
X55245000Y-78105000D02*
X55245000Y-81835000D01*
X55880000Y-77470000D02*
X55245000Y-78105000D01*
X57230000Y-83820000D02*
X57230000Y-86503000D01*
X57230000Y-86503000D02*
X58960000Y-88233000D01*
X58960000Y-91440000D02*
X58960000Y-88233000D01*
X58960000Y-88233000D02*
X60452000Y-86741000D01*
X60452000Y-86741000D02*
X65024000Y-86741000D01*
X65024000Y-86741000D02*
X67564000Y-84201000D01*
X100330000Y-60960000D02*
X100330000Y-63502540D01*
X100330000Y-63502540D02*
X97790000Y-66042540D01*
D32*
X67310000Y-110490000D02*
X63500000Y-114300000D01*
X63500000Y-114300000D02*
X58420000Y-114300000D01*
X67310000Y-110490000D02*
X71120000Y-106680000D01*
X71120000Y-106680000D02*
X71120000Y-105330000D01*
X71120000Y-105330000D02*
X71120000Y-106680000D01*
X127000000Y-116840000D02*
X127000000Y-99060000D01*
D33*
X91520000Y-99140000D02*
X92710000Y-100330000D01*
X92710000Y-102616000D02*
X91440000Y-103886000D01*
X127000000Y-93980000D02*
X127000000Y-99060000D01*
X127000000Y-93980000D02*
X127000000Y-93345000D01*
X133350000Y-92790000D02*
X137160000Y-92790000D01*
X137160000Y-115650000D02*
X133350000Y-115650000D01*
X83820000Y-123190000D02*
X83820000Y-119460000D01*
X83820000Y-119460000D02*
X83740000Y-119380000D01*
X83740000Y-119380000D02*
X91440000Y-119380000D01*
X112395000Y-127635000D02*
X110490000Y-129540000D01*
X112395000Y-115062000D02*
X112395000Y-127635000D01*
X95170000Y-57150000D02*
X95170000Y-60960000D01*
X95170000Y-53340000D02*
X95170000Y-57150000D01*
D34*
X128000000Y-73000000D02*
X128000000Y-70770000D01*
X128000000Y-70770000D02*
X114380000Y-57150000D01*
X114380000Y-57150000D02*
X114380000Y-66595000D01*
X114380000Y-66595000D02*
X114380000Y-57150000D01*
X111633000Y-69342000D02*
X114380000Y-66595000D01*
X114380000Y-57150000D02*
X104140000Y-57150000D01*
X104140000Y-57150000D02*
X100330000Y-60960000D01*
X71501000Y-85471000D02*
X77343000Y-85471000D01*
X77343000Y-85471000D02*
X77978000Y-86106000D01*
X70104000Y-85471000D02*
X67437000Y-85471000D01*
X67437000Y-85471000D02*
X66421000Y-86487000D01*
X71501000Y-85471000D02*
X70104000Y-85471000D01*
X100965000Y-84709000D02*
X85090000Y-84709000D01*
X85090000Y-84709000D02*
X82804000Y-86995000D01*
X78867000Y-86995000D02*
X77978000Y-86106000D01*
X79502000Y-86995000D02*
X78867000Y-86995000D01*
X82804000Y-86995000D02*
X79502000Y-86995000D01*
X104267000Y-87884000D02*
X104140000Y-87884000D01*
X104140000Y-87884000D02*
X100965000Y-84709000D01*
D32*
X85090000Y-81440000D02*
X85090000Y-80010000D01*
X85979000Y-79121000D02*
X91059000Y-79121000D01*
X85090000Y-80010000D02*
X85979000Y-79121000D01*
X96520000Y-92710000D02*
X99441000Y-92710000D01*
X99441000Y-92710000D02*
X104267000Y-87884000D01*
D34*
X95250000Y-100330000D02*
X95250000Y-102743000D01*
X95250000Y-102743000D02*
X92710000Y-105283000D01*
X92710000Y-105283000D02*
X92710000Y-115570000D01*
X96520000Y-96520000D02*
X96520000Y-99060000D01*
X96520000Y-99060000D02*
X95250000Y-100330000D01*
X106553000Y-86360000D02*
X106553000Y-91059000D01*
X101092000Y-96520000D02*
X96520000Y-96520000D01*
X106553000Y-91059000D02*
X101092000Y-96520000D01*
X62230000Y-83820000D02*
X62357000Y-83820000D01*
X62357000Y-83820000D02*
X64770000Y-81407000D01*
X64770000Y-81407000D02*
X64770000Y-80010000D01*
X106553000Y-86360000D02*
X106553000Y-86868000D01*
X106553000Y-86868000D02*
X105537000Y-87884000D01*
X105537000Y-87884000D02*
X104267000Y-87884000D01*
X61976000Y-87630000D02*
X60960000Y-88646000D01*
X60960000Y-88646000D02*
X60960000Y-91440000D01*
X66421000Y-86487000D02*
X65278000Y-87630000D01*
X65278000Y-87630000D02*
X61976000Y-87630000D01*
D33*
X105410000Y-73660000D02*
X104140000Y-73660000D01*
X98552000Y-61849000D02*
X98552000Y-61468000D01*
X95504000Y-64897000D02*
X98552000Y-61849000D01*
X95504000Y-67310000D02*
X95504000Y-64897000D01*
X97282000Y-69088000D02*
X95504000Y-67310000D01*
X99568000Y-69088000D02*
X97282000Y-69088000D01*
X104140000Y-73660000D02*
X99568000Y-69088000D01*
X92710000Y-115570000D02*
X92710000Y-105283000D01*
X92710000Y-105283000D02*
X95250000Y-102743000D01*
X100330000Y-53340000D02*
X100330000Y-57404000D01*
X100330000Y-57404000D02*
X98552000Y-59182000D01*
X98552000Y-59182000D02*
X98552000Y-61468000D01*
D34*
X186690000Y-94020000D02*
X186777000Y-94020000D01*
M02*
