G04 #@! TF.FileFunction,Copper,L2,Bot,Signal*
%FSLAX46Y46*%
G04 Gerber Fmt 4.6, Leading zero omitted, Abs format (unit mm)*
G04 Created by KiCad (PCBNEW 4.0.2+dfsg1-stable) date Wed 05 Apr 2017 10:48:54 PM CEST*
%MOMM*%
G01*
G04 APERTURE LIST*
%ADD10C,0.100000*%
%ADD11C,0.300000*%
%ADD12C,0.150000*%
%ADD13R,1.300000X1.300000*%
%ADD14C,1.300000*%
%ADD15C,1.998980*%
%ADD16R,1.998980X1.998980*%
%ADD17R,2.000000X2.000000*%
%ADD18C,2.000000*%
%ADD19C,1.699260*%
%ADD20R,1.699260X1.699260*%
%ADD21C,1.800000*%
%ADD22C,1.000760*%
%ADD23C,1.524000*%
%ADD24R,1.500000X1.500000*%
%ADD25C,1.500000*%
%ADD26C,2.100000*%
%ADD27O,1.600000X1.600000*%
%ADD28C,1.900000*%
%ADD29C,7.000000*%
%ADD30C,0.914400*%
%ADD31C,0.508000*%
%ADD32C,0.250000*%
%ADD33C,0.254000*%
%ADD34C,0.990600*%
G04 APERTURE END LIST*
D10*
D11*
X75128571Y-50871429D02*
X75057142Y-50800000D01*
X74914285Y-50728571D01*
X74557142Y-50728571D01*
X74414285Y-50800000D01*
X74342856Y-50871429D01*
X74271428Y-51014286D01*
X74271428Y-51157143D01*
X74342856Y-51371429D01*
X75199999Y-52228571D01*
X74271428Y-52228571D01*
D12*
X57000000Y-50000000D02*
G75*
G03X57000000Y-50000000I-2000000J0D01*
G01*
X189500000Y-50000000D02*
G75*
G03X189500000Y-50000000I-2000000J0D01*
G01*
X189500000Y-140000000D02*
G75*
G03X189500000Y-140000000I-2000000J0D01*
G01*
X57000000Y-140000000D02*
G75*
G03X57000000Y-140000000I-2000000J0D01*
G01*
X50000000Y-150000000D02*
X192500000Y-150000000D01*
X192500000Y-40000000D02*
X50000000Y-40000000D01*
X192500000Y-48000000D02*
X192500000Y-150000000D01*
X192500000Y-40000000D02*
X192500000Y-48000000D01*
D13*
X119380000Y-57150000D03*
D14*
X114380000Y-57150000D03*
D13*
X90170000Y-53340000D03*
D14*
X95170000Y-53340000D03*
D13*
X62230000Y-83820000D03*
D14*
X57230000Y-83820000D03*
D13*
X90170000Y-57150000D03*
D14*
X95170000Y-57150000D03*
D13*
X60960000Y-91440000D03*
D14*
X58960000Y-91440000D03*
D13*
X90170000Y-60960000D03*
D14*
X95170000Y-60960000D03*
D13*
X90170000Y-44450000D03*
D14*
X95170000Y-44450000D03*
D13*
X107950000Y-46990000D03*
D14*
X102950000Y-46990000D03*
D13*
X105410000Y-73660000D03*
D14*
X100410000Y-73660000D03*
D13*
X96520000Y-96520000D03*
D14*
X91520000Y-96520000D03*
D13*
X73660000Y-81280000D03*
D14*
X73660000Y-76280000D03*
D13*
X82550000Y-96520000D03*
D14*
X87550000Y-96520000D03*
D13*
X106553000Y-86360000D03*
D14*
X104553000Y-86360000D03*
D13*
X119380000Y-86360000D03*
D14*
X117380000Y-86360000D03*
D13*
X137160000Y-97790000D03*
D14*
X137160000Y-92790000D03*
D13*
X78740000Y-119380000D03*
D14*
X83740000Y-119380000D03*
D13*
X71120000Y-100330000D03*
D14*
X71120000Y-105330000D03*
D13*
X133350000Y-97790000D03*
D14*
X133350000Y-92790000D03*
D13*
X137160000Y-120650000D03*
D14*
X137160000Y-115650000D03*
D13*
X133350000Y-120650000D03*
D14*
X133350000Y-115650000D03*
D15*
X97790000Y-66042540D03*
D16*
X107950000Y-66042540D03*
D17*
X107950000Y-124460000D03*
D18*
X110490000Y-124460000D03*
D17*
X101600000Y-124460000D03*
D18*
X104140000Y-124460000D03*
D17*
X95250000Y-124460000D03*
D18*
X97790000Y-124460000D03*
D17*
X88900000Y-124460000D03*
D18*
X91440000Y-124460000D03*
D19*
X139702540Y-102870520D03*
D20*
X139702540Y-92710520D03*
D19*
X142242540Y-125730520D03*
D20*
X142242540Y-115570520D03*
D19*
X139702540Y-125730520D03*
D20*
X139702540Y-115570520D03*
D21*
X119070000Y-72390000D03*
X112070000Y-72390000D03*
D22*
X128270000Y-95250000D03*
X127000000Y-93980000D03*
X129540000Y-93980000D03*
X128270000Y-100330000D03*
X127000000Y-99060000D03*
X129540000Y-99060000D03*
X128270000Y-118110000D03*
X127000000Y-116840000D03*
X129540000Y-116840000D03*
X128270000Y-123190000D03*
X127000000Y-121920000D03*
X129540000Y-121920000D03*
D23*
X90170000Y-46990000D03*
X100330000Y-46990000D03*
X100330000Y-49530000D03*
X90170000Y-49530000D03*
X82550000Y-64770000D03*
X72390000Y-64770000D03*
X72390000Y-72390000D03*
X82550000Y-72390000D03*
X82550000Y-67310000D03*
X72390000Y-67310000D03*
X86360000Y-87630000D03*
X96520000Y-87630000D03*
X96520000Y-90170000D03*
X86360000Y-90170000D03*
X82550000Y-69850000D03*
X72390000Y-69850000D03*
X96520000Y-92710000D03*
X86360000Y-92710000D03*
X124460000Y-92710000D03*
X124460000Y-102870000D03*
D24*
X110490000Y-129540000D03*
D25*
X107950000Y-129540000D03*
X105410000Y-129540000D03*
X102870000Y-129540000D03*
X100330000Y-129540000D03*
D26*
X147320000Y-93980000D03*
X147320000Y-97760000D03*
X147320000Y-101540000D03*
X162440000Y-101540000D03*
X167480000Y-101540000D03*
X172520000Y-101540000D03*
X172520000Y-93980000D03*
X167480000Y-93980000D03*
X162440000Y-93980000D03*
D23*
X121920000Y-92710000D03*
X121920000Y-102870000D03*
X73660000Y-123190000D03*
X83820000Y-123190000D03*
X73660000Y-128270000D03*
X83820000Y-128270000D03*
X67310000Y-100330000D03*
X67310000Y-110490000D03*
X124460000Y-115570000D03*
X124460000Y-125730000D03*
D26*
X147320000Y-116840000D03*
X147320000Y-120620000D03*
X147320000Y-124400000D03*
X162440000Y-124400000D03*
X167480000Y-124400000D03*
X172520000Y-124400000D03*
X172520000Y-116840000D03*
X167480000Y-116840000D03*
X162440000Y-116840000D03*
D23*
X121920000Y-115570000D03*
X121920000Y-125730000D03*
X73660000Y-125730000D03*
X83820000Y-125730000D03*
D21*
X91059000Y-76581000D03*
X91059000Y-79121000D03*
X91059000Y-74041000D03*
X72390000Y-93980000D03*
X76890000Y-93980000D03*
X72390000Y-87480000D03*
X76890000Y-87480000D03*
D25*
X58420000Y-101600000D03*
X58420000Y-104140000D03*
X58420000Y-106680000D03*
X58420000Y-109220000D03*
X58420000Y-111760000D03*
X58420000Y-114300000D03*
X57150000Y-77470000D03*
X64770000Y-80010000D03*
X57150000Y-80010000D03*
X64770000Y-77470000D03*
X59690000Y-77470000D03*
X62230000Y-80010000D03*
X59690000Y-80010000D03*
X62230000Y-77470000D03*
D27*
X100330000Y-60960000D03*
X102870000Y-60960000D03*
X105410000Y-60960000D03*
X107950000Y-60960000D03*
X107950000Y-53340000D03*
X105410000Y-53340000D03*
X102870000Y-53340000D03*
X100330000Y-53340000D03*
X77470000Y-115570000D03*
X80010000Y-115570000D03*
X82550000Y-115570000D03*
X85090000Y-115570000D03*
X87630000Y-115570000D03*
X90170000Y-115570000D03*
X92710000Y-115570000D03*
X95250000Y-115570000D03*
X97790000Y-115570000D03*
X100330000Y-115570000D03*
X102870000Y-115570000D03*
X105410000Y-115570000D03*
X107950000Y-115570000D03*
X110490000Y-115570000D03*
X110490000Y-100330000D03*
X107950000Y-100330000D03*
X105410000Y-100330000D03*
X102870000Y-100330000D03*
X100330000Y-100330000D03*
X97790000Y-100330000D03*
X95250000Y-100330000D03*
X92710000Y-100330000D03*
X90170000Y-100330000D03*
X87630000Y-100330000D03*
X85090000Y-100330000D03*
X82550000Y-100330000D03*
X80010000Y-100330000D03*
X77470000Y-100330000D03*
D26*
X175000000Y-45500000D03*
X175000000Y-63000000D03*
X128000000Y-53000000D03*
X128000000Y-73000000D03*
X175000000Y-80500000D03*
D28*
X186690000Y-67350000D03*
X186690000Y-72350000D03*
X186690000Y-94020000D03*
X186690000Y-99020000D03*
X186690000Y-116880000D03*
X186690000Y-121880000D03*
X120500000Y-45500000D03*
X115500000Y-45500000D03*
D19*
X142242540Y-102870520D03*
D20*
X142242540Y-92710520D03*
D29*
X55000000Y-140000000D03*
X187500000Y-140000000D03*
X187500000Y-50000000D03*
X55000000Y-50000000D03*
D30*
X80010000Y-79502000D03*
X81280000Y-74041000D03*
X84074000Y-73660000D03*
X78994000Y-83312000D03*
X110490000Y-96774000D03*
X79756000Y-84582000D03*
X99060000Y-110871000D03*
X67437000Y-91186000D03*
X81661000Y-79502000D03*
X89662000Y-86995000D03*
X87503000Y-77851000D03*
X74803000Y-83312000D03*
X91440000Y-113284000D03*
X104521000Y-90424000D03*
X111633000Y-69342000D03*
X70104000Y-85471000D03*
D31*
X119380000Y-86360000D02*
X121666000Y-86360000D01*
X130556000Y-55556000D02*
X128000000Y-53000000D01*
X130556000Y-77470000D02*
X130556000Y-55556000D01*
X121666000Y-86360000D02*
X130556000Y-77470000D01*
D32*
X119380000Y-86360000D02*
X133352020Y-86360000D01*
X133352020Y-86360000D02*
X139702540Y-92710520D01*
D33*
X105410000Y-60960000D02*
X103251000Y-58801000D01*
X103251000Y-58801000D02*
X102616000Y-58801000D01*
X102616000Y-58801000D02*
X98171000Y-54356000D01*
X98171000Y-54356000D02*
X97409000Y-55118000D01*
X97409000Y-55118000D02*
X97282000Y-55245000D01*
X97282000Y-55245000D02*
X92329000Y-55245000D01*
X105410000Y-60960000D02*
X104140000Y-59690000D01*
X90170000Y-57150000D02*
X90424000Y-57150000D01*
X90424000Y-57150000D02*
X91313000Y-56261000D01*
X90424000Y-57150000D02*
X91313000Y-56261000D01*
X91313000Y-56261000D02*
X92329000Y-55245000D01*
X92329000Y-55245000D02*
X97282000Y-55245000D01*
X97282000Y-55245000D02*
X98044000Y-54483000D01*
X100330000Y-46990000D02*
X98171000Y-49149000D01*
X103251000Y-58801000D02*
X104140000Y-59690000D01*
X102616000Y-58801000D02*
X103251000Y-58801000D01*
X98171000Y-54356000D02*
X102616000Y-58801000D01*
X98171000Y-49149000D02*
X98171000Y-54356000D01*
X104140000Y-59690000D02*
X105410000Y-60960000D01*
X102870000Y-60960000D02*
X102870000Y-61849000D01*
X91948000Y-62738000D02*
X90170000Y-60960000D01*
X101981000Y-62738000D02*
X91948000Y-62738000D01*
X102870000Y-61849000D02*
X101981000Y-62738000D01*
X107950000Y-46990000D02*
X109982000Y-49022000D01*
X110109000Y-49149000D02*
X110109000Y-49911000D01*
X109982000Y-49022000D02*
X110109000Y-49149000D01*
D32*
X110109000Y-58801000D02*
X107950000Y-60960000D01*
X110109000Y-49911000D02*
X110109000Y-58801000D01*
D31*
X107950000Y-66042540D02*
X112722540Y-66042540D01*
X112649000Y-66167000D02*
X112649000Y-65969000D01*
X112649000Y-66116080D02*
X112649000Y-66167000D01*
X112722540Y-66042540D02*
X112649000Y-66116080D01*
X107950000Y-60960000D02*
X107950000Y-61270000D01*
X107950000Y-61270000D02*
X112649000Y-65969000D01*
X112649000Y-65969000D02*
X119070000Y-72390000D01*
D33*
X102950000Y-49530000D02*
X102950000Y-46990000D01*
D32*
X102950000Y-49530000D02*
X102950000Y-49530000D01*
X102950000Y-49530000D02*
X102950000Y-50880000D01*
X102950000Y-50880000D02*
X105410000Y-53340000D01*
D33*
X76890000Y-93980000D02*
X80010000Y-93980000D01*
X80010000Y-93980000D02*
X82550000Y-96520000D01*
X142242540Y-102870520D02*
X142240520Y-102870520D01*
X142240520Y-102870520D02*
X137160000Y-97790000D01*
X147320000Y-93980000D02*
X144399000Y-96901000D01*
D32*
X144399000Y-100714060D02*
X142242540Y-102870520D01*
X144399000Y-96901000D02*
X144399000Y-100714060D01*
D33*
X147320000Y-116840000D02*
X144526000Y-119634000D01*
X144526000Y-119634000D02*
X144526000Y-119507000D01*
X144526000Y-120777000D02*
X144526000Y-123447060D01*
D32*
X144526000Y-120777000D02*
X144526000Y-119507000D01*
D33*
X144526000Y-123447060D02*
X142242540Y-125730520D01*
X137160000Y-120650000D02*
X137162020Y-120650000D01*
X137162020Y-120650000D02*
X142242540Y-125730520D01*
X128270000Y-95250000D02*
X126492000Y-95250000D01*
X126492000Y-95250000D02*
X124460000Y-93218000D01*
X124460000Y-93218000D02*
X124460000Y-92710000D01*
X128270000Y-100330000D02*
X126365000Y-100330000D01*
X126365000Y-100330000D02*
X121920000Y-95885000D01*
D32*
X121920000Y-92710000D02*
X121920000Y-95885000D01*
X128270000Y-118110000D02*
X127762000Y-118618000D01*
X124460000Y-116840000D02*
X124460000Y-115570000D01*
X126238000Y-118618000D02*
X124460000Y-116840000D01*
X126619000Y-118618000D02*
X126238000Y-118618000D01*
X127762000Y-118618000D02*
X126619000Y-118618000D01*
D33*
X100330000Y-49530000D02*
X100330000Y-50800000D01*
X100330000Y-50800000D02*
X102870000Y-53340000D01*
X91059000Y-76581000D02*
X90805000Y-76581000D01*
X90805000Y-76581000D02*
X87630000Y-73406000D01*
X81280000Y-74041000D02*
X81280000Y-78232000D01*
X81280000Y-78232000D02*
X80010000Y-79502000D01*
X87630000Y-69850000D02*
X82550000Y-64770000D01*
X87630000Y-73406000D02*
X87630000Y-69850000D01*
X79629000Y-67691000D02*
X82550000Y-64770000D01*
X79629000Y-72390000D02*
X79629000Y-67691000D01*
X81280000Y-74041000D02*
X79629000Y-72390000D01*
X84963000Y-69723000D02*
X82550000Y-67310000D01*
X84963000Y-72771000D02*
X84963000Y-69723000D01*
X84074000Y-73660000D02*
X84963000Y-72771000D01*
X86360000Y-87630000D02*
X82042000Y-83312000D01*
X78994000Y-83312000D02*
X81153000Y-83312000D01*
X81153000Y-83312000D02*
X82042000Y-83312000D01*
X86360000Y-86995000D02*
X86360000Y-87630000D01*
X96520000Y-90170000D02*
X96520000Y-87630000D01*
X99441000Y-90170000D02*
X96520000Y-90170000D01*
X101219000Y-91948000D02*
X99441000Y-90170000D01*
X105664000Y-91948000D02*
X101219000Y-91948000D01*
X110490000Y-96774000D02*
X105664000Y-91948000D01*
X86360000Y-90170000D02*
X82677000Y-86487000D01*
X80772000Y-84582000D02*
X79756000Y-84582000D01*
X81026000Y-84836000D02*
X80772000Y-84582000D01*
X82677000Y-86487000D02*
X81026000Y-84836000D01*
X85090000Y-100330000D02*
X86487000Y-98933000D01*
X120523000Y-98933000D02*
X124460000Y-102870000D01*
X86487000Y-98933000D02*
X120523000Y-98933000D01*
D34*
X186690000Y-72350000D02*
X184350000Y-72350000D01*
X184350000Y-72350000D02*
X175000000Y-63000000D01*
X186690000Y-99020000D02*
X183221000Y-99020000D01*
X165488000Y-90932000D02*
X162440000Y-93980000D01*
X175133000Y-90932000D02*
X165488000Y-90932000D01*
X183221000Y-99020000D02*
X175133000Y-90932000D01*
D33*
X125095000Y-101600000D02*
X125730000Y-102235000D01*
X82550000Y-100330000D02*
X82550000Y-100203000D01*
X82550000Y-100203000D02*
X84455000Y-98298000D01*
X84455000Y-98298000D02*
X121158000Y-98298000D01*
X121158000Y-98298000D02*
X124460000Y-101600000D01*
X124460000Y-101600000D02*
X125095000Y-101600000D01*
X125730000Y-102235000D02*
X125730000Y-103251000D01*
X125730000Y-103251000D02*
X124841000Y-104140000D01*
X124841000Y-104140000D02*
X123190000Y-104140000D01*
X123190000Y-104140000D02*
X121920000Y-102870000D01*
X110871000Y-109982000D02*
X106553000Y-105664000D01*
X94234000Y-102616000D02*
X82296000Y-102616000D01*
X97282000Y-105664000D02*
X94234000Y-102616000D01*
X106553000Y-105664000D02*
X97282000Y-105664000D01*
X124460000Y-125730000D02*
X124460000Y-123571000D01*
X82296000Y-102616000D02*
X80010000Y-100330000D01*
X124460000Y-123571000D02*
X110871000Y-109982000D01*
X87630000Y-115570000D02*
X91821000Y-119761000D01*
D32*
X115951000Y-119761000D02*
X121920000Y-125730000D01*
X91821000Y-119761000D02*
X115951000Y-119761000D01*
D33*
X64770000Y-77470000D02*
X64770000Y-77343000D01*
X64770000Y-77343000D02*
X63119000Y-75692000D01*
X63119000Y-75692000D02*
X56134000Y-75692000D01*
X56134000Y-75692000D02*
X55118000Y-76708000D01*
X55118000Y-76708000D02*
X55118000Y-100838000D01*
X55118000Y-100838000D02*
X58420000Y-104140000D01*
X62484000Y-108204000D02*
X58420000Y-104140000D01*
X89916000Y-108204000D02*
X62484000Y-108204000D01*
X92583000Y-110871000D02*
X89916000Y-108204000D01*
X99060000Y-110871000D02*
X92583000Y-110871000D01*
X67437000Y-90170000D02*
X67437000Y-91186000D01*
X71882000Y-85725000D02*
X67437000Y-90170000D01*
X73914000Y-85725000D02*
X71882000Y-85725000D01*
X77851000Y-81788000D02*
X73914000Y-85725000D01*
X79375000Y-81788000D02*
X77851000Y-81788000D01*
X81661000Y-79502000D02*
X79375000Y-81788000D01*
X68453000Y-95758000D02*
X70485000Y-97790000D01*
X78359000Y-104140000D02*
X80518000Y-104140000D01*
X72009000Y-97790000D02*
X78359000Y-104140000D01*
X70485000Y-97790000D02*
X72009000Y-97790000D01*
X97790000Y-115570000D02*
X100139500Y-113220500D01*
X100139500Y-113220500D02*
X100139500Y-109664500D01*
X100139500Y-109664500D02*
X97536000Y-107061000D01*
X97536000Y-107061000D02*
X96520000Y-107061000D01*
X100139500Y-109664500D02*
X100139500Y-113220500D01*
X97409000Y-107061000D02*
X97536000Y-107061000D01*
X97536000Y-107061000D02*
X100139500Y-109664500D01*
X80518000Y-104140000D02*
X93599000Y-104140000D01*
X93599000Y-104140000D02*
X96520000Y-107061000D01*
X96520000Y-107061000D02*
X97409000Y-107061000D01*
X64262000Y-82042000D02*
X62230000Y-80010000D01*
X64262000Y-91567000D02*
X64262000Y-82042000D01*
X68453000Y-95758000D02*
X64262000Y-91567000D01*
X89662000Y-86995000D02*
X89662000Y-83439000D01*
X89662000Y-83439000D02*
X87503000Y-81280000D01*
X87503000Y-81280000D02*
X87503000Y-77851000D01*
X73660000Y-76280000D02*
X73660000Y-76327000D01*
X73660000Y-76327000D02*
X75311000Y-77978000D01*
X75311000Y-82804000D02*
X74803000Y-83312000D01*
X75311000Y-77978000D02*
X75311000Y-82804000D01*
X117380000Y-87122000D02*
X117380000Y-87154000D01*
X117380000Y-87154000D02*
X120142000Y-89916000D01*
X127000000Y-92456000D02*
X127000000Y-92329000D01*
X127000000Y-92329000D02*
X124587000Y-89916000D01*
X72390000Y-67310000D02*
X72390000Y-64770000D01*
X72390000Y-69850000D02*
X72390000Y-67310000D01*
X73660000Y-76280000D02*
X73660000Y-74295000D01*
X74422000Y-71882000D02*
X72390000Y-69850000D01*
X74422000Y-73533000D02*
X74422000Y-71882000D01*
X73660000Y-74295000D02*
X74422000Y-73533000D01*
X87550000Y-96520000D02*
X86106000Y-96520000D01*
X74295000Y-92075000D02*
X72390000Y-93980000D01*
X81661000Y-92075000D02*
X74295000Y-92075000D01*
X86106000Y-96520000D02*
X81661000Y-92075000D01*
X91520000Y-96520000D02*
X87550000Y-96520000D01*
X91440000Y-113284000D02*
X90551000Y-112395000D01*
X69215000Y-112395000D02*
X67310000Y-110490000D01*
X90551000Y-112395000D02*
X69215000Y-112395000D01*
D31*
X91440000Y-113284000D02*
X93091000Y-113284000D01*
X93091000Y-113284000D02*
X95250000Y-115443000D01*
X95250000Y-115443000D02*
X95250000Y-115570000D01*
X104553000Y-90392000D02*
X104553000Y-86360000D01*
X104521000Y-90424000D02*
X104553000Y-90392000D01*
D33*
X95250000Y-115570000D02*
X95250000Y-115443000D01*
D31*
X128000000Y-73000000D02*
X126390000Y-73000000D01*
X117380000Y-82010000D02*
X117380000Y-86360000D01*
X126390000Y-73000000D02*
X117380000Y-82010000D01*
X100410000Y-73660000D02*
X100410000Y-82217000D01*
X100410000Y-82217000D02*
X104553000Y-86360000D01*
D32*
X117380000Y-86360000D02*
X117380000Y-87122000D01*
X120142000Y-89916000D02*
X124587000Y-89916000D01*
X127000000Y-92456000D02*
X127000000Y-93980000D01*
X95170000Y-44450000D02*
X95170000Y-53340000D01*
X100330000Y-60960000D02*
X95170000Y-60960000D01*
D31*
X100410000Y-73660000D02*
X100410000Y-73580000D01*
X100410000Y-73580000D02*
X104648000Y-69342000D01*
X104648000Y-69342000D02*
X111633000Y-69342000D01*
X97790000Y-66042540D02*
X97790000Y-71040000D01*
X97790000Y-71040000D02*
X100410000Y-73660000D01*
X115500000Y-45500000D02*
X115500000Y-56030000D01*
X115500000Y-56030000D02*
X114380000Y-57150000D01*
D33*
X73660000Y-81280000D02*
X73660000Y-81915000D01*
X73660000Y-81915000D02*
X70104000Y-85471000D01*
X91059000Y-79121000D02*
X91059000Y-87249000D01*
X91059000Y-87249000D02*
X96520000Y-92710000D01*
X90805000Y-79121000D02*
X91059000Y-79121000D01*
X73660000Y-81280000D02*
X73660000Y-81026000D01*
X73660000Y-81026000D02*
X70866000Y-78232000D01*
X70866000Y-78232000D02*
X70866000Y-73914000D01*
X70866000Y-73914000D02*
X72390000Y-72390000D01*
X95250000Y-100330000D02*
X95250000Y-101854000D01*
X121412000Y-106426000D02*
X149479000Y-106426000D01*
X118999000Y-104013000D02*
X121412000Y-106426000D01*
X97409000Y-104013000D02*
X118999000Y-104013000D01*
X95250000Y-101854000D02*
X97409000Y-104013000D01*
D31*
X62230000Y-83820000D02*
X62230000Y-90170000D01*
X62230000Y-90170000D02*
X60960000Y-91440000D01*
X106553000Y-86360000D02*
X106553000Y-74803000D01*
X106553000Y-74803000D02*
X105410000Y-73660000D01*
D32*
X162440000Y-101540000D02*
X154365000Y-101540000D01*
X154365000Y-101540000D02*
X149479000Y-106426000D01*
X153229000Y-124400000D02*
X162440000Y-124400000D01*
X149479000Y-120650000D02*
X153229000Y-124400000D01*
X149479000Y-106426000D02*
X149479000Y-120650000D01*
D31*
X112070000Y-72390000D02*
X106680000Y-72390000D01*
X106680000Y-72390000D02*
X105410000Y-73660000D01*
D34*
X186690000Y-121880000D02*
X184491000Y-121880000D01*
X165615000Y-113665000D02*
X162440000Y-116840000D01*
X176276000Y-113665000D02*
X165615000Y-113665000D01*
X184491000Y-121880000D02*
X176276000Y-113665000D01*
X186690000Y-94020000D02*
X186730000Y-94020000D01*
X186730000Y-94020000D02*
X189484000Y-96774000D01*
X189484000Y-114086000D02*
X186690000Y-116880000D01*
X189484000Y-96774000D02*
X189484000Y-114086000D01*
X186690000Y-67350000D02*
X186690000Y-67437000D01*
X186690000Y-67437000D02*
X189484000Y-70231000D01*
X189484000Y-91226000D02*
X186690000Y-94020000D01*
X189484000Y-70231000D02*
X189484000Y-91226000D01*
X175000000Y-45500000D02*
X175000000Y-51556000D01*
X186690000Y-63246000D02*
X186690000Y-67350000D01*
X175000000Y-51556000D02*
X186690000Y-63246000D01*
M02*
