M48
;DRILL file {KiCad 4.0.2+dfsg1-stable} date Wed 05 Apr 2017 10:49:09 PM CEST
;FORMAT={-:-/ absolute / inch / decimal}
FMAT,2
INCH,TZ
T1C0.020
T2C0.024
T3C0.028
T4C0.031
T5C0.032
T6C0.035
T7C0.039
T8C0.039
T9C0.050
T10C0.051
T11C0.197
%
G90
G05
M72
T1
X2.655Y-3.59
X2.76Y-3.365
X2.945Y-3.28
X3.11Y-3.28
X3.14Y-3.33
X3.15Y-3.13
X3.2Y-2.915
X3.215Y-3.13
X3.31Y-2.9
X3.445Y-3.065
X3.53Y-3.425
X3.6Y-4.46
X3.9Y-4.365
X4.115Y-3.56
X4.35Y-3.81
X4.395Y-2.73
T2
X5.Y-3.7
X5.Y-3.9
X5.Y-4.6
X5.Y-4.8
X5.05Y-3.75
X5.05Y-3.95
X5.05Y-4.65
X5.05Y-4.85
X5.1Y-3.7
X5.1Y-3.9
X5.1Y-4.6
X5.1Y-4.8
T3
X5.5001Y-3.65
X5.5001Y-4.05
X5.5001Y-4.55
X5.5001Y-4.95
X5.6001Y-3.65
X5.6001Y-4.05
X5.6001Y-4.55
X5.6001Y-4.95
T4
X2.2531Y-3.3
X2.3213Y-3.6
X2.4Y-3.6
X2.45Y-3.3
X2.8Y-3.95
X2.8Y-4.1469
X2.9Y-3.0031
X2.9Y-3.2
X3.05Y-3.95
X3.05Y-4.55
X3.1Y-4.7
X3.15Y-3.95
X3.15Y-4.55
X3.25Y-3.8
X3.25Y-3.95
X3.25Y-4.55
X3.2969Y-4.7
X3.35Y-3.95
X3.35Y-4.55
X3.4469Y-3.8
X3.45Y-3.95
X3.45Y-4.55
X3.55Y-1.75
X3.55Y-2.1
X3.55Y-2.25
X3.55Y-2.4
X3.55Y-3.95
X3.55Y-4.55
X3.6031Y-3.8
X3.65Y-3.95
X3.65Y-4.55
X3.7469Y-1.75
X3.7469Y-2.1
X3.7469Y-2.25
X3.7469Y-2.4
X3.75Y-3.95
X3.75Y-4.55
X3.8Y-3.8
X3.85Y-3.95
X3.85Y-4.55
X3.95Y-2.1
X3.95Y-2.4
X3.95Y-3.95
X3.95Y-4.55
X3.9531Y-2.9
X4.05Y-2.1
X4.05Y-2.4
X4.05Y-3.95
X4.05Y-4.55
X4.0531Y-1.85
X4.1163Y-3.4
X4.15Y-2.1
X4.15Y-2.4
X4.15Y-2.9
X4.15Y-3.95
X4.15Y-4.55
X4.195Y-3.4
X4.25Y-1.85
X4.25Y-2.1
X4.25Y-2.4
X4.25Y-3.95
X4.25Y-4.55
X4.35Y-3.95
X4.35Y-4.55
X4.5031Y-2.25
X4.6213Y-3.4
X4.7Y-2.25
X4.7Y-3.4
X5.25Y-3.6531
X5.25Y-3.85
X5.25Y-4.5531
X5.25Y-4.75
X5.4Y-3.6531
X5.4Y-3.85
X5.4Y-4.5531
X5.4Y-4.75
T5
X2.65Y-3.95
X2.65Y-4.35
X2.85Y-2.55
X2.85Y-2.65
X2.85Y-2.75
X2.85Y-2.85
X2.9Y-4.85
X2.9Y-4.95
X2.9Y-5.05
X3.25Y-2.55
X3.25Y-2.65
X3.25Y-2.75
X3.25Y-2.85
X3.3Y-4.85
X3.3Y-4.95
X3.3Y-5.05
X3.4Y-3.45
X3.4Y-3.55
X3.4Y-3.65
X3.55Y-1.85
X3.55Y-1.95
X3.8Y-3.45
X3.8Y-3.55
X3.8Y-3.65
X3.95Y-1.85
X3.95Y-1.95
X4.8Y-3.65
X4.8Y-4.05
X4.8Y-4.55
X4.8Y-4.95
X4.9Y-3.65
X4.9Y-4.05
X4.9Y-4.55
X4.9Y-4.95
T6
X2.25Y-3.05
X2.25Y-3.15
X2.3Y-4.
X2.3Y-4.1
X2.3Y-4.2
X2.3Y-4.3
X2.3Y-4.4
X2.3Y-4.5
X2.35Y-3.05
X2.35Y-3.15
X2.45Y-3.05
X2.45Y-3.15
X2.55Y-3.05
X2.55Y-3.15
X3.95Y-5.1
X4.05Y-5.1
X4.15Y-5.1
X4.25Y-5.1
X4.35Y-5.1
T7
X2.85Y-3.4441
X2.85Y-3.7
X3.0272Y-3.4441
X3.0272Y-3.7
X3.585Y-2.915
X3.585Y-3.015
X3.585Y-3.115
X4.4122Y-2.85
X4.5472Y-1.7913
X4.6878Y-2.85
X4.7441Y-1.7913
X7.35Y-2.6516
X7.35Y-2.8484
X7.35Y-3.7016
X7.35Y-3.8984
X7.35Y-4.6016
X7.35Y-4.7984
T8
X3.5Y-4.9
X3.6Y-4.9
X3.75Y-4.9
X3.85Y-4.9
X4.Y-4.9
X4.1Y-4.9
X4.25Y-2.6001
X4.25Y-4.9
X4.35Y-4.9
T9
X3.85Y-2.6001
T10
X5.0394Y-2.0866
X5.0394Y-2.874
X5.8Y-3.7
X5.8Y-3.8488
X5.8Y-3.9976
X5.8Y-4.6
X5.8Y-4.7488
X5.8Y-4.8976
X6.3953Y-3.7
X6.3953Y-3.9976
X6.3953Y-4.6
X6.3953Y-4.8976
X6.5937Y-3.7
X6.5937Y-3.9976
X6.5937Y-4.6
X6.5937Y-4.8976
X6.7921Y-3.7
X6.7921Y-3.9976
X6.7921Y-4.6
X6.7921Y-4.8976
X6.8898Y-1.7913
X6.8898Y-2.4803
X6.8898Y-3.1693
T11
X2.1654Y-1.9685
X2.1654Y-5.5118
X7.3819Y-1.9685
X7.3819Y-5.5118
T0
M30
